<svg xmlns="http://www.w3.org/2000/svg" width="145" height="60" viewBox="0 0 145 60">
  <g id="footer_logo" transform="translate(18921 24213)">
    <g id="사각형_6421" data-name="사각형 6421" transform="translate(-18921 -24213)" fill="#fff" stroke="#707070" stroke-width="1" opacity="0">
      <rect width="145" height="60" stroke="none"/>
      <rect x="0.5" y="0.5" width="144" height="59" fill="none"/>
    </g>
    <path id="패스_35887" data-name="패스 35887" d="M2.1,0h9.93c6.96,0,11.73-4.05,11.73-10.5S18.99-21,12.03-21H2.1ZM8.04-4.74V-16.26h3.75c3.57,0,5.97,2.13,5.97,5.76s-2.4,5.76-5.97,5.76ZM43.23-8.1c0-5.37-3.9-8.43-8.7-8.43-5.13,0-8.94,3.48-8.94,8.37,0,4.86,3.75,8.43,9.54,8.43,3.09,0,5.37-.9,6.93-2.64l-3-3.12a5.21,5.21,0,0,1-3.75,1.41c-2.1,0-3.51-.96-3.99-2.61H43.14C43.17-7.14,43.23-7.68,43.23-8.1Zm-8.67-4.38a3.213,3.213,0,0,1,3.33,2.79H31.23A3.233,3.233,0,0,1,34.56-12.48ZM51.78.27c5.28,0,8.04-2.34,8.04-5.34,0-6.45-9.57-4.02-9.57-6.27,0-.6.69-1.14,2.61-1.14a9.528,9.528,0,0,1,4.68,1.2l1.71-3.87a14.265,14.265,0,0,0-6.42-1.38c-5.1,0-7.92,2.34-7.92,5.4,0,6.51,9.6,4.02,9.6,6.21,0,.69-.63,1.11-2.55,1.11a11.4,11.4,0,0,1-5.67-1.5l-1.71,3.9A14.921,14.921,0,0,0,51.78.27ZM65.13-18.06a3.164,3.164,0,0,0,3.48-3.12c0-1.71-1.38-2.94-3.48-2.94s-3.48,1.32-3.48,3.03S63.03-18.06,65.13-18.06ZM62.28,0h5.7V-16.26h-5.7ZM83.73-16.26v1.98a5.9,5.9,0,0,0-5.1-2.25A7.684,7.684,0,0,0,70.65-8.7,7.69,7.69,0,0,0,78.63-.84a6.07,6.07,0,0,0,4.83-1.92v.54c0,2.55-1.29,3.93-4.35,3.93A9.418,9.418,0,0,1,73.62-.03L71.55,3.96a14.287,14.287,0,0,0,8.07,2.13c6.06,0,9.54-2.91,9.54-9.06V-16.26ZM79.98-5.37A3.329,3.329,0,0,1,76.41-8.7,3.307,3.307,0,0,1,79.98-12a3.281,3.281,0,0,1,3.54,3.3A3.3,3.3,0,0,1,79.98-5.37Zm23.43-11.16a6.985,6.985,0,0,0-5.16,2.04v-1.77H92.82V0h5.7V-7.86c0-2.7,1.41-3.84,3.24-3.84,1.65,0,2.67.99,2.67,3.33V0h5.7V-9.3C110.13-14.34,107.22-16.53,103.41-16.53ZM130.56-8.1c0-5.37-3.9-8.43-8.7-8.43-5.13,0-8.94,3.48-8.94,8.37,0,4.86,3.75,8.43,9.54,8.43,3.09,0,5.37-.9,6.93-2.64l-3-3.12a5.21,5.21,0,0,1-3.75,1.41c-2.1,0-3.51-.96-3.99-2.61h11.82C130.5-7.14,130.56-7.68,130.56-8.1Zm-8.67-4.38a3.213,3.213,0,0,1,3.33,2.79h-6.66A3.233,3.233,0,0,1,121.89-12.48Zm16.74-1.83v-1.95H133.2V0h5.7V-7.47c0-2.85,1.59-4.02,3.9-4.02a10.38,10.38,0,0,1,1.29.09v-5.13A6.656,6.656,0,0,0,138.63-14.31ZM11.7,10H2.1V31H8.04V25.51H11.7c5.73,0,9.33-2.97,9.33-7.74C21.03,12.97,17.43,10,11.7,10Zm-.36,10.83H8.04V14.68h3.3c2.46,0,3.69,1.14,3.69,3.09C15.03,19.69,13.8,20.83,11.34,20.83ZM31.77,31.27c5.37,0,9.18-3.51,9.18-8.43,0-4.89-3.81-8.37-9.18-8.37-5.31,0-9.18,3.48-9.18,8.37C22.59,27.76,26.46,31.27,31.77,31.27Zm0-4.53c-1.92,0-3.42-1.41-3.42-3.9,0-2.46,1.5-3.84,3.42-3.84,1.95,0,3.42,1.38,3.42,3.84C35.19,25.33,33.72,26.74,31.77,26.74ZM49.02,16.69V14.74H43.59V31h5.7V23.53c0-2.85,1.59-4.02,3.9-4.02a10.38,10.38,0,0,1,1.29.09V14.47A6.656,6.656,0,0,0,49.02,16.69Zm18.12,9.66a3.12,3.12,0,0,1-1.74.51A1.652,1.652,0,0,1,63.69,25V19.6h3.72V15.34H63.69V11.11h-5.7v4.23H55.62V19.6h2.37v5.46c0,4.17,2.43,6.21,6.6,6.21a7.663,7.663,0,0,0,3.96-.93Zm9.81-11.37c0-1.44.69-2.13,1.89-2.13a3.65,3.65,0,0,1,1.71.48l1.41-4.02a7.737,7.737,0,0,0-3.78-.84c-4.35,0-6.78,2.55-6.78,6.45v.42H69.03V19.6H71.4V31h5.7V19.6h3.72V15.34H76.95ZM90.9,31.27c5.37,0,9.18-3.51,9.18-8.43,0-4.89-3.81-8.37-9.18-8.37-5.31,0-9.18,3.48-9.18,8.37C81.72,27.76,85.59,31.27,90.9,31.27Zm0-4.53c-1.92,0-3.42-1.41-3.42-3.9,0-2.46,1.5-3.84,3.42-3.84,1.95,0,3.42,1.38,3.42,3.84C94.32,25.33,92.85,26.74,90.9,26.74ZM102.72,31h5.7V8.74h-5.7Zm12.24-18.06a3.164,3.164,0,0,0,3.48-3.12c0-1.71-1.38-2.94-3.48-2.94s-3.48,1.32-3.48,3.03S112.86,12.94,114.96,12.94ZM112.11,31h5.7V14.74h-5.7Zm17.55.27c5.37,0,9.18-3.51,9.18-8.43,0-4.89-3.81-8.37-9.18-8.37-5.31,0-9.18,3.48-9.18,8.37C120.48,27.76,124.35,31.27,129.66,31.27Zm0-4.53c-1.92,0-3.42-1.41-3.42-3.9,0-2.46,1.5-3.84,3.42-3.84,1.95,0,3.42,1.38,3.42,3.84C133.08,25.33,131.61,26.74,129.66,26.74Z" transform="translate(-18921.1 -24186.881)" fill="#8b95a0"/>
  </g>
</svg>
