<svg xmlns="http://www.w3.org/2000/svg" width="45" height="105" viewBox="0 0 45 105">
  <g id="header_logo_a" transform="translate(18924 24259)">
    <g id="사각형_6420" data-name="사각형 6420" transform="translate(-18924 -24154) rotate(-90)" fill="#fff" stroke="#707070" stroke-width="1" opacity="0.003">
      <rect width="105" height="45" stroke="none"/>
      <rect x="0.5" y="0.5" width="104" height="44" fill="none"/>
    </g>
    <path id="패스_35886" data-name="패스 35886" d="M1.54,0H8.822c5.1,0,8.6-2.97,8.6-7.7s-3.5-7.7-8.6-7.7H1.54ZM5.9-3.476v-8.448h2.75c2.618,0,4.378,1.562,4.378,4.224s-1.76,4.224-4.378,4.224ZM31.7-5.94c0-3.938-2.86-6.182-6.38-6.182-3.762,0-6.556,2.552-6.556,6.138,0,3.564,2.75,6.182,7,6.182a6.454,6.454,0,0,0,5.082-1.936l-2.2-2.288a3.821,3.821,0,0,1-2.75,1.034,2.753,2.753,0,0,1-2.926-1.914h8.668C31.658-5.236,31.7-5.632,31.7-5.94ZM25.344-9.152a2.356,2.356,0,0,1,2.442,2.046H22.9A2.371,2.371,0,0,1,25.344-9.152ZM37.972.2c3.872,0,5.9-1.716,5.9-3.916,0-4.73-7.018-2.948-7.018-4.6,0-.44.506-.836,1.914-.836a6.987,6.987,0,0,1,3.432.88L43.45-11.11a10.461,10.461,0,0,0-4.708-1.012c-3.74,0-5.808,1.716-5.808,3.96,0,4.774,7.04,2.948,7.04,4.554,0,.506-.462.814-1.87.814a8.363,8.363,0,0,1-4.158-1.1l-1.254,2.86A10.942,10.942,0,0,0,37.972.2Zm9.79-13.442a2.32,2.32,0,0,0,2.552-2.288,2.263,2.263,0,0,0-2.552-2.156,2.31,2.31,0,0,0-2.552,2.222A2.31,2.31,0,0,0,47.762-13.244ZM45.672,0h4.18V-11.924h-4.18ZM61.4-11.924v1.452a4.328,4.328,0,0,0-3.74-1.65A5.635,5.635,0,0,0,51.81-6.38,5.64,5.64,0,0,0,57.662-.616,4.451,4.451,0,0,0,61.2-2.024v.4c0,1.87-.946,2.882-3.19,2.882A6.907,6.907,0,0,1,53.988-.022L52.47,2.9a10.477,10.477,0,0,0,5.918,1.562c4.444,0,7-2.134,7-6.644v-9.746Zm-2.75,7.986A2.442,2.442,0,0,1,56.034-6.38,2.425,2.425,0,0,1,58.652-8.8a2.406,2.406,0,0,1,2.6,2.42A2.423,2.423,0,0,1,58.652-3.938Zm17.182-8.184a5.122,5.122,0,0,0-3.784,1.5v-1.3H68.068V0h4.18V-5.764c0-1.98,1.034-2.816,2.376-2.816,1.21,0,1.958.726,1.958,2.442V0h4.18V-6.82C80.762-10.516,78.628-12.122,75.834-12.122ZM95.744-5.94c0-3.938-2.86-6.182-6.38-6.182-3.762,0-6.556,2.552-6.556,6.138,0,3.564,2.75,6.182,7,6.182a6.454,6.454,0,0,0,5.082-1.936l-2.2-2.288a3.821,3.821,0,0,1-2.75,1.034A2.753,2.753,0,0,1,87.01-4.906h8.668C95.7-5.236,95.744-5.632,95.744-5.94ZM89.386-9.152a2.356,2.356,0,0,1,2.442,2.046H86.944A2.371,2.371,0,0,1,89.386-9.152Zm12.276-1.342v-1.43H97.68V0h4.18V-5.478a2.6,2.6,0,0,1,2.86-2.948,7.612,7.612,0,0,1,.946.066v-3.762A4.881,4.881,0,0,0,101.662-10.494ZM8.58,7.6H1.54V23H5.9V18.974H8.58c4.2,0,6.842-2.178,6.842-5.676C15.422,9.778,12.782,7.6,8.58,7.6Zm-.264,7.942H5.9v-4.51h2.42c1.8,0,2.706.836,2.706,2.266C11.022,14.706,10.12,15.542,8.316,15.542ZM23.3,23.2c3.938,0,6.732-2.574,6.732-6.182,0-3.586-2.794-6.138-6.732-6.138-3.894,0-6.732,2.552-6.732,6.138C16.566,20.624,19.4,23.2,23.3,23.2Zm0-3.322a2.545,2.545,0,0,1-2.508-2.86,2.525,2.525,0,1,1,5.016,0C25.806,18.842,24.728,19.876,23.3,19.876Zm12.65-7.37v-1.43H31.966V23h4.18V17.522a2.6,2.6,0,0,1,2.86-2.948,7.612,7.612,0,0,1,.946.066V10.878A4.881,4.881,0,0,0,35.948,12.506ZM49.236,19.59a2.288,2.288,0,0,1-1.276.374A1.211,1.211,0,0,1,46.706,18.6V14.64h2.728V11.516H46.706v-3.1h-4.18v3.1H40.788V14.64h1.738v4c0,3.058,1.782,4.554,4.84,4.554a5.619,5.619,0,0,0,2.9-.682Zm7.194-8.338c0-1.056.506-1.562,1.386-1.562a2.677,2.677,0,0,1,1.254.352L60.1,7.094a5.674,5.674,0,0,0-2.772-.616c-3.19,0-4.972,1.87-4.972,4.73v.308H50.622V14.64H52.36V23h4.18V14.64h2.728V11.516H56.43ZM66.66,23.2c3.938,0,6.732-2.574,6.732-6.182,0-3.586-2.794-6.138-6.732-6.138-3.894,0-6.732,2.552-6.732,6.138C59.928,20.624,62.766,23.2,66.66,23.2Zm0-3.322a2.545,2.545,0,0,1-2.508-2.86,2.525,2.525,0,1,1,5.016,0C69.168,18.842,68.09,19.876,66.66,19.876ZM75.328,23h4.18V6.676h-4.18ZM84.3,9.756a2.32,2.32,0,0,0,2.552-2.288A2.263,2.263,0,0,0,84.3,5.312a2.31,2.31,0,0,0-2.552,2.222A2.31,2.31,0,0,0,84.3,9.756ZM82.214,23h4.18V11.076h-4.18Zm12.87.2c3.938,0,6.732-2.574,6.732-6.182,0-3.586-2.794-6.138-6.732-6.138-3.894,0-6.732,2.552-6.732,6.138C88.352,20.624,91.19,23.2,95.084,23.2Zm0-3.322a2.545,2.545,0,0,1-2.508-2.86,2.525,2.525,0,1,1,5.016,0C97.592,18.842,96.514,19.876,95.084,19.876Z" transform="translate(-18904.313 -24153.334) rotate(-90)" fill="#fff"/>
  </g>
</svg>
