<svg id="icon_speaker" xmlns="http://www.w3.org/2000/svg" width="28" height="28" viewBox="0 0 28 28">
  <path id="패스_35879" data-name="패스 35879" d="M0,0H28V28H0Z" fill="none"/>
  <path id="패스_35880" data-name="패스 35880" d="M14.5,7.831l-3.963,3.243h-4.2v4.667h4.2L14.5,18.984ZM9.7,18.074H5.167A1.167,1.167,0,0,1,4,16.908v-7A1.167,1.167,0,0,1,5.167,8.741H9.7L15.88,3.687a.583.583,0,0,1,.953.451V22.677a.583.583,0,0,1-.953.451L9.7,18.074Zm11.636.689L19.681,17.1a4.667,4.667,0,0,0-.374-7.655l1.679-1.679a7,7,0,0,1,.355,10.992Z" transform="translate(0.667 0.592)" fill="#fff"/>
</svg>
